<?xml version="1.0" encoding="UTF-8"?>
<svg version="1.1" xmlns="http://www.w3.org/2000/svg" width="674" height="370">
<path d="M0 0 C0.85766968 -0.0065712 1.71533936 -0.0131424 2.59899902 -0.01991272 C5.43123475 -0.03958454 8.26341746 -0.05129763 11.09570312 -0.0612793 C12.06782242 -0.06535482 13.03994171 -0.06943035 14.04151917 -0.07362938 C19.19173976 -0.09446882 24.34193391 -0.10877707 29.4921875 -0.11816406 C34.78320871 -0.12919546 40.07380557 -0.16356373 45.36467743 -0.20333576 C49.45707928 -0.2296246 53.54938212 -0.23786697 57.64186096 -0.24144554 C59.59048818 -0.24628356 61.53911182 -0.25781693 63.48765564 -0.27648354 C76.46470022 -0.39302707 89.30220482 -0.39503077 100.18945312 7.80200195 C101.40568359 8.68758789 101.40568359 8.68758789 102.64648438 9.59106445 C103.21753906 10.11442383 103.78859375 10.6377832 104.37695312 11.17700195 C104.37695312 11.83700195 104.37695312 12.49700195 104.37695312 13.17700195 C105.03695312 13.17700195 105.69695312 13.17700195 106.37695312 13.17700195 C108.03320313 15.5559082 108.03320313 15.5559082 109.87695312 18.73950195 C110.48539063 19.77204102 111.09382812 20.80458008 111.72070312 21.8684082 C116.2904049 30.99703415 116.81694501 41.46794884 114.68945312 51.38012695 C111.29928339 61.49413333 104.39431226 70.37078636 94.93554688 75.5012207 C89.08638295 78.17700195 89.08638295 78.17700195 86.37695312 78.17700195 C86.37695312 78.83700195 86.37695312 79.49700195 86.37695312 80.17700195 C86.95703125 80.3471582 87.53710938 80.51731445 88.13476562 80.69262695 C99.78110562 84.30568293 105.99038492 90.75410587 111.86132812 101.27075195 C116.20701786 109.60372402 116.80804385 119.09680029 114.65429688 128.24731445 C110.62620507 139.95650441 103.85389819 149.45921357 92.68164062 155.17700195 C82.60079845 159.55106229 70.49222671 159.59160625 60.07226562 156.34106445 C49.84853754 151.92559928 42.23218759 144.08669979 37.37695312 134.17700195 C37.37552811 135.08187347 37.37410309 135.986745 37.37263489 136.91903687 C37.35474452 145.48097295 37.31295277 154.04239617 37.24486256 162.60408592 C37.21069139 167.00492431 37.18549805 171.4054192 37.18139648 175.80639648 C37.17709219 180.06018988 37.14845486 184.31320969 37.10352135 188.56676102 C37.09061398 190.1828624 37.0862145 191.79905667 37.09079933 193.41520309 C37.11095585 202.68471344 36.67403398 210.21079639 31.37695312 218.17700195 C30.69310295 219.2833046 30.69310295 219.2833046 29.99543762 220.41195679 C24.83063043 228.52184424 15.51092395 233.66969879 6.37695312 236.17700195 C3.40395177 236.5884471 0.50031331 236.65433873 -2.49804688 236.61450195 C-3.28671143 236.60837891 -4.07537598 236.60225586 -4.88793945 236.59594727 C-11.12719431 236.42896772 -16.14188257 235.25560657 -21.62304688 232.17700195 C-22.68845703 231.6046582 -22.68845703 231.6046582 -23.77539062 231.02075195 C-25.41380243 230.1123256 -27.02279036 229.15107114 -28.62304688 228.17700195 C-28.62304688 227.51700195 -28.62304688 226.85700195 -28.62304688 226.17700195 C-29.94304687 225.51700195 -31.26304687 224.85700195 -32.62304688 224.17700195 C-32.62304688 223.51700195 -32.62304688 222.85700195 -32.62304688 222.17700195 C-33.28304688 222.17700195 -33.94304687 222.17700195 -34.62304688 222.17700195 C-35.58767663 220.47221604 -36.54445741 218.76298784 -37.49804688 217.05200195 C-38.29855469 215.62500977 -38.29855469 215.62500977 -39.11523438 214.16918945 C-43.75767011 204.9564802 -44.15029715 194.10169355 -41.93554688 184.05981445 C-39.82867554 178.42393362 -36.52617589 173.71757666 -32.62304688 169.17700195 C-32.171875 168.63172852 -31.72070312 168.08645508 -31.25585938 167.5246582 C-27.21991413 163.04407492 -22.21376608 160.35170512 -16.62304688 158.17700195 C-15.63304687 158.17700195 -14.64304687 158.17700195 -13.62304688 158.17700195 C-13.62304688 157.51700195 -13.62304688 156.85700195 -13.62304688 156.17700195 C-14.65300781 156.09450195 -15.68296875 156.01200195 -16.74414062 155.92700195 C-24.66034015 154.39637727 -31.55153992 148.26524089 -36.12304688 141.73950195 C-36.99173107 140.23858015 -37.82646859 138.71740499 -38.62304688 137.17700195 C-39.03296875 136.46543945 -39.44289063 135.75387695 -39.86523438 135.02075195 C-44.13997367 126.41231145 -44.12433018 115.18945851 -41.82226562 105.9699707 C-40.89703624 103.58723711 -39.87317487 101.40350728 -38.62304688 99.17700195 C-38.14867187 98.24887695 -37.67429687 97.32075195 -37.18554688 96.36450195 C-35.23555403 93.63451196 -33.07927841 91.46576315 -30.62304688 89.17700195 C-30.08421875 88.66782227 -29.54539062 88.15864258 -28.99023438 87.6340332 C-24.4656532 83.52538886 -19.98097536 80.17700195 -13.62304688 80.17700195 C-13.62304688 79.51700195 -13.62304688 78.85700195 -13.62304688 78.17700195 C-14.53183594 77.99137695 -14.53183594 77.99137695 -15.45898438 77.80200195 C-24.26811683 75.63360012 -31.02693948 71.39548257 -35.99414062 63.6809082 C-42.68703072 52.52075415 -44.71241384 41.01968248 -41.97460938 28.12231445 C-41.04426313 25.63343945 -39.97739238 23.46221029 -38.62304688 21.17700195 C-38.11386719 20.3159082 -37.6046875 19.45481445 -37.08007812 18.56762695 C-30.79447576 8.84436105 -22.71745881 3.48880294 -11.5123291 0.64045715 C-7.67390722 0.02475524 -3.87680468 0.01297907 0 0 Z M36.37695312 80.17700195 C36.37695312 88.42700195 36.37695312 96.67700195 36.37695312 105.17700195 C37.36695313 103.69200195 37.36695313 103.69200195 38.37695312 102.17700195 C39.01632812 101.22825195 39.65570313 100.27950195 40.31445312 99.30200195 C42.35256419 96.36085483 42.35256419 96.36085483 43.56445312 93.73950195 C47.6357588 87.98351807 53.97375504 83.96813958 60.37695312 81.17700195 C60.37695312 80.84700195 60.37695312 80.51700195 60.37695312 80.17700195 C52.45695312 80.17700195 44.53695312 80.17700195 36.37695312 80.17700195 Z " fill="#8952FD" transform="translate(300.623046875,68.822998046875)"/>
<path d="M0 0 C0.85766968 -0.0065712 1.71533936 -0.0131424 2.59899902 -0.01991272 C5.43123475 -0.03958454 8.26341746 -0.05129763 11.09570312 -0.0612793 C12.06782242 -0.06535482 13.03994171 -0.06943035 14.04151917 -0.07362938 C19.19173976 -0.09446882 24.34193391 -0.10877707 29.4921875 -0.11816406 C34.78320871 -0.12919546 40.07380557 -0.16356373 45.36467743 -0.20333576 C49.45707928 -0.2296246 53.54938212 -0.23786697 57.64186096 -0.24144554 C59.59048818 -0.24628356 61.53911182 -0.25781693 63.48765564 -0.27648354 C76.46470022 -0.39302707 89.30220482 -0.39503077 100.18945312 7.80200195 C101.40568359 8.68758789 101.40568359 8.68758789 102.64648438 9.59106445 C103.21753906 10.11442383 103.78859375 10.6377832 104.37695312 11.17700195 C104.37695312 11.83700195 104.37695312 12.49700195 104.37695312 13.17700195 C105.03695312 13.17700195 105.69695312 13.17700195 106.37695312 13.17700195 C108.03320313 15.5559082 108.03320313 15.5559082 109.87695312 18.73950195 C110.48539063 19.77204102 111.09382812 20.80458008 111.72070312 21.8684082 C116.2904049 30.99703415 116.81694501 41.46794884 114.68945312 51.38012695 C111.08212149 62.14199966 103.89985236 69.82840246 94.56445312 76.05200195 C84.19018925 79.71350685 71.47380484 78.51084221 60.56445312 78.73950195 C59.62228943 78.75968384 58.68012573 78.77986572 57.70941162 78.80065918 C43.15905517 79.10511994 28.60653786 79.33024099 14.0531311 79.40817261 C12.02833396 79.42066798 10.00356106 79.43813876 7.97885132 79.46072388 C5.14525291 79.49048887 2.31225226 79.50048135 -0.52148438 79.50512695 C-1.35708389 79.51742844 -2.19268341 79.52972992 -3.05360413 79.54240417 C-8.00501722 79.52364289 -11.27893358 78.82063788 -15.62304688 76.17700195 C-15.62304688 75.51700195 -15.62304688 74.85700195 -15.62304688 74.17700195 C-16.32429688 74.23887695 -17.02554687 74.30075195 -17.74804688 74.36450195 C-21.33725083 74.13042343 -23.48365318 72.90687195 -26.62304688 71.17700195 C-27.59242188 70.84700195 -28.56179688 70.51700195 -29.56054688 70.17700195 C-36.38919388 65.71747738 -40.50187622 56.93861886 -42.62304688 49.17700195 C-43.03396061 46.20399918 -43.10133391 43.30033096 -43.06054688 40.30200195 C-43.05224854 39.51116211 -43.0439502 38.72032227 -43.03540039 37.90551758 C-42.8547604 31.6467599 -41.84994019 26.6217895 -38.62304688 21.17700195 C-38.11386719 20.3159082 -37.6046875 19.45481445 -37.08007812 18.56762695 C-30.79447576 8.84436105 -22.71745881 3.48880294 -11.5123291 0.64045715 C-7.67390722 0.02475524 -3.87680468 0.01297907 0 0 Z " fill="#FD7237" transform="translate(300.623046875,68.822998046875)"/>
<path d="M0 0 C1.25435852 0.00302124 1.25435852 0.00302124 2.53405762 0.00610352 C5.61520995 0.01645469 8.6962832 0.04437591 11.77734375 0.0703125 C18.68671875 0.1115625 25.59609375 0.1528125 32.71484375 0.1953125 C32.71484375 25.9353125 32.71484375 51.6753125 32.71484375 78.1953125 C21.51546875 78.288125 21.51546875 78.288125 10.08984375 78.3828125 C7.74294434 78.41012451 5.39604492 78.43743652 2.97802734 78.46557617 C1.10645054 78.47434252 -0.765132 78.48198611 -2.63671875 78.48828125 C-3.59924561 78.50362915 -4.56177246 78.51897705 -5.5534668 78.53479004 C-10.92189492 78.53687568 -14.61057319 78.16226969 -19.28515625 75.1953125 C-19.28515625 74.5353125 -19.28515625 73.8753125 -19.28515625 73.1953125 C-19.98640625 73.2571875 -20.68765625 73.3190625 -21.41015625 73.3828125 C-24.99936021 73.14873398 -27.14576255 71.9251825 -30.28515625 70.1953125 C-31.33703125 69.7209375 -32.38890625 69.2465625 -33.47265625 68.7578125 C-38.50317518 65.96307976 -40.46392044 61.38746326 -42.46923828 56.17382812 C-44.02444136 50.49654579 -43.81803812 44.79129813 -43.72265625 38.9453125 C-43.72974609 37.70523438 -43.73683594 36.46515625 -43.74414062 35.1875 C-43.70079276 28.98542041 -43.57657449 24.62572408 -40.28515625 19.1953125 C-39.64578125 19.0509375 -39.00640625 18.9065625 -38.34765625 18.7578125 C-37.66703125 18.5721875 -36.98640625 18.3865625 -36.28515625 18.1953125 C-35.35993474 16.5100876 -34.4386206 14.82240276 -33.55078125 13.1171875 C-31.26552192 9.64697888 -27.93143101 7.1395176 -24.28515625 5.1953125 C-22.96515625 5.1953125 -21.64515625 5.1953125 -20.28515625 5.1953125 C-19.95515625 4.2053125 -19.62515625 3.2153125 -19.28515625 2.1953125 C-13.30856964 -0.34142159 -6.36998813 -0.07386336 0 0 Z " fill="#FD3737" transform="translate(304.28515625,69.8046875)"/>
<path d="M0 0 C0.94594025 0.00141495 1.89188049 0.0028299 2.8664856 0.00428772 C5.87196079 0.00986141 8.87736003 0.02240905 11.8828125 0.03515625 C13.92708225 0.04017465 15.97135318 0.04473696 18.015625 0.04882812 C23.01304986 0.05982222 28.01041833 0.07706868 33.0078125 0.09765625 C33.13527325 7.17753737 33.22243975 14.2571193 33.2824707 21.33789062 C33.30751334 23.74327655 33.3415575 26.14858714 33.38500977 28.55371094 C33.4461113 32.02427831 33.47412613 35.49383397 33.49609375 38.96484375 C33.52190018 40.02879364 33.5477066 41.09274353 33.57429504 42.18893433 C33.57705447 49.64403154 31.89846896 54.76402116 28.0078125 61.09765625 C27.5516304 61.84167694 27.0954483 62.58569763 26.6254425 63.3522644 C21.42542341 71.44081406 12.14913454 76.58833516 3.0078125 79.09765625 C0.03481114 79.5091014 -2.86882732 79.57499303 -5.8671875 79.53515625 C-6.65585205 79.5290332 -7.4445166 79.52291016 -8.25708008 79.51660156 C-14.49633493 79.34962202 -19.5110232 78.17626087 -24.9921875 75.09765625 C-26.05759766 74.5253125 -26.05759766 74.5253125 -27.14453125 73.94140625 C-28.78294306 73.0329799 -30.39193099 72.07172543 -31.9921875 71.09765625 C-31.9921875 70.43765625 -31.9921875 69.77765625 -31.9921875 69.09765625 C-33.3121875 68.43765625 -34.6321875 67.77765625 -35.9921875 67.09765625 C-35.9921875 66.43765625 -35.9921875 65.77765625 -35.9921875 65.09765625 C-36.6521875 65.09765625 -37.3121875 65.09765625 -37.9921875 65.09765625 C-38.95681725 63.39287034 -39.91359804 61.68364213 -40.8671875 59.97265625 C-41.40085937 59.02132812 -41.93453125 58.07 -42.484375 57.08984375 C-47.12681073 47.8771345 -47.51943778 37.02234785 -45.3046875 26.98046875 C-43.19318061 21.33218782 -39.87832983 16.66436665 -35.9921875 12.09765625 C-35.58742188 11.55238281 -35.18265625 11.00710937 -34.765625 10.4453125 C-26.78307075 0.82217195 -11.60612912 -0.06585557 0 0 Z " fill="#28CA73" transform="translate(303.9921875,225.90234375)"/>
<path d="M0 0 C0 0.66 0 1.32 0 2 C0.58007812 2.17015625 1.16015625 2.3403125 1.7578125 2.515625 C13.4041525 6.12868097 19.6134318 12.57710391 25.484375 23.09375 C29.83006473 31.42672206 30.43109072 40.91979834 28.27734375 50.0703125 C24.24925194 61.77950246 17.47694506 71.28221162 6.3046875 77 C-3.77615467 81.37406033 -15.88472641 81.4146043 -26.3046875 78.1640625 C-36.45869842 73.77870706 -45.17774244 65.52319238 -49.40673828 55.21069336 C-50.73145784 50.27434126 -50.4689116 45.13690057 -50.4375 40.0625 C-50.45748047 38.92103516 -50.47746094 37.77957031 -50.49804688 36.60351562 C-50.49407176 29.72258531 -49.7889165 24.78507906 -46 19 C-45.62238525 18.37722168 -45.24477051 17.75444336 -44.85571289 17.11279297 C-39.13601794 7.92754917 -31.07910798 4.12815203 -20.80078125 1.7109375 C-13.86535389 0.41366332 -7.0445405 -0.05086311 0 0 Z " fill="#03B6FD" transform="translate(387,147)"/>
<path d="M0 0 C0.87855148 -0.00014603 1.75710297 -0.00029205 2.66227722 -0.0004425 C5.55702205 0.0002524 8.451702 0.00802503 11.34643555 0.01586914 C13.35711126 0.01773482 15.36778742 0.01915802 17.37846375 0.02015686 C22.66384136 0.02397023 27.94919138 0.03379044 33.23455811 0.04486084 C38.63057075 0.05510034 44.02658786 0.05965992 49.42260742 0.06469727 C60.00530182 0.07541376 70.58797576 0.09247602 81.1706543 0.11352539 C81.1706543 0.44352539 81.1706543 0.77352539 81.1706543 1.11352539 C80.0881691 1.12161224 79.0056839 1.1296991 77.89039612 1.13803101 C67.66537665 1.21567505 57.44048725 1.30345988 47.21563816 1.40105247 C41.95954058 1.45089742 36.70346196 1.49722821 31.44726562 1.53540039 C26.37026454 1.57240262 21.29342673 1.61880245 16.21656609 1.6715889 C14.28422867 1.69005371 12.35185636 1.70519054 10.41946602 1.71686935 C7.70297825 1.73386793 4.986858 1.76293445 2.27050781 1.79467773 C1.48000031 1.79683792 0.6894928 1.79899811 -0.12496948 1.80122375 C-5.44370863 1.88009499 -10.78256153 2.31729576 -15.8293457 4.11352539 C-16.1593457 4.77352539 -16.4893457 5.43352539 -16.8293457 6.11352539 C-18.49601237 6.78019206 -20.16267904 7.44685872 -21.8293457 8.11352539 C-27.19173385 11.0683107 -29.09542795 13.84096973 -31.8293457 19.11352539 C-32.4893457 19.77352539 -33.1493457 20.43352539 -33.8293457 21.11352539 C-34.8193457 20.78352539 -35.8093457 20.45352539 -36.8293457 20.11352539 C-39.36256475 26.80994717 -39.15998148 33.03331941 -39.1418457 40.11352539 C-39.15795898 41.37165039 -39.17407227 42.62977539 -39.19067383 43.92602539 C-39.19131836 45.14290039 -39.19196289 46.35977539 -39.19262695 47.61352539 C-39.19560791 48.71696289 -39.19858887 49.82040039 -39.20166016 50.95727539 C-38.77917798 54.53881609 -37.48076496 56.94006468 -35.8293457 60.11352539 C-36.1593457 60.77352539 -36.4893457 61.43352539 -36.8293457 62.11352539 C-37.64772012 60.7002441 -38.4588079 59.28274193 -39.2668457 57.86352539 C-39.71930664 57.07461914 -40.17176758 56.28571289 -40.63793945 55.47290039 C-44.53615341 47.75315866 -43.94942842 36.39005965 -42.1809082 28.05883789 C-41.25056196 25.56996289 -40.1836912 23.39873373 -38.8293457 21.11352539 C-38.32016602 20.25243164 -37.81098633 19.39133789 -37.28637695 18.50415039 C-30.99333248 8.76937221 -22.9315921 3.45875261 -11.73152161 0.57301331 C-7.80521616 -0.04862024 -3.96893913 -0.01732589 0 0 Z " fill="#F8BDB8" transform="translate(300.829345703125,68.886474609375)"/>
<path d="M0 0 C0.55300781 0.2990625 1.10601562 0.598125 1.67578125 0.90625 C4.95535827 2.44958036 8.36375981 3.27808463 11.85546875 4.21875 C14 5 14 5 15 7 C19.40100449 9.42286935 23.83368288 9.27331025 28.72265625 9.23046875 C29.59650467 9.23037308 30.47035309 9.2302774 31.37068176 9.23017883 C34.26808786 9.22642455 37.16516286 9.20737192 40.0625 9.1875 C42.08675001 9.18060097 44.11100141 9.17409759 46.13525391 9.16796875 C70.09359241 9.06662214 94.04834462 8.54626197 118 8 C118 8.33 118 8.66 118 9 C117.30962646 9.08040527 116.61925293 9.16081055 115.90795898 9.24365234 C112.75040725 9.61481756 109.59398009 9.99483332 106.4375 10.375 C105.35146484 10.50132812 104.26542969 10.62765625 103.14648438 10.7578125 C97.57595136 11.43508095 92.333701 12.23995519 87 14 C87.33 13.34 87.66 12.68 88 12 C77.11 11.505 77.11 11.505 66 11 C66 21.23 66 31.46 66 42 C65.67 42 65.34 42 65 42 C65 31.77 65 21.54 65 11 C58.75188922 11.1196176 52.50398247 11.24214023 46.25610352 11.37231445 C44.12885993 11.41573423 42.0015799 11.45740393 39.87426758 11.49731445 C36.82361849 11.55484707 33.77315411 11.61858967 30.72265625 11.68359375 C29.76537125 11.70030624 28.80808624 11.71701874 27.8217926 11.73423767 C26.94095505 11.75418289 26.06011749 11.77412811 25.15258789 11.79467773 C23.9834359 11.81799416 23.9834359 11.81799416 22.79066467 11.84178162 C20.97706647 11.80889119 20.97706647 11.80889119 20 13 C18.15108054 13.23363881 16.29511969 13.41303635 14.4375 13.5625 C13.42558594 13.64628906 12.41367187 13.73007813 11.37109375 13.81640625 C10.58863281 13.87699219 9.80617188 13.93757812 9 14 C12.625 11 12.625 11 16 11 C16 10.34 16 9.68 16 9 C15.34773438 8.84144531 14.69546875 8.68289062 14.0234375 8.51953125 C8.15530567 6.95296508 4.31155619 5.31155619 0 1 C0 0.67 0 0.34 0 0 Z " fill="#9351D0" transform="translate(271,138)"/>
<path d="M0 0 C1.43088528 2.86177057 0.59991697 4.93375773 0 8 C-0.804375 8.144375 -1.60875 8.28875 -2.4375 8.4375 C-4.92103706 8.74135249 -4.92103706 8.74135249 -6 10 C-6.20768229 11.47396739 -6.36716017 12.9549126 -6.5 14.4375 C-6.89041096 18.78082192 -6.89041096 18.78082192 -8 21 C-8.26435731 24.30646904 -8.23148851 27.62162927 -8.25 30.9375 C-8.270625 31.85724609 -8.29125 32.77699219 -8.3125 33.72460938 C-8.31765625 34.60826172 -8.3228125 35.49191406 -8.328125 36.40234375 C-8.3374707 37.21179443 -8.34681641 38.02124512 -8.35644531 38.85522461 C-7.91603721 41.50521445 -6.97115479 42.25248214 -5 44 C-4.2265625 46.26953125 -4.2265625 46.26953125 -3.625 48.8125 C-2.29297582 53.67759366 -0.49782851 56.40763558 3 60 C-0.47967013 58.55459856 -2.27662135 56.78363086 -4.5625 53.8125 C-5.14128906 53.07644531 -5.72007812 52.34039062 -6.31640625 51.58203125 C-11.22634739 44.05193591 -11.49242688 37.93568715 -11.4375 29.0625 C-11.45748047 27.92103516 -11.47746094 26.77957031 -11.49804688 25.60351562 C-11.49407655 18.73087473 -10.81829374 13.76821328 -7 8 C-6.53335937 7.24847656 -6.06671875 6.49695313 -5.5859375 5.72265625 C-2.22222222 1.11111111 -2.22222222 1.11111111 0 0 Z " fill="#2FA7FD" transform="translate(348,158)"/>
<path d="M0 0 C1.65 0 3.3 0 5 0 C5 0.66 5 1.32 5 2 C5.58007812 2.17015625 6.16015625 2.3403125 6.7578125 2.515625 C18.4041525 6.12868097 24.6134318 12.57710391 30.484375 23.09375 C34.47607018 30.74792838 34.72796578 38.47851828 34 47 C33.34 47.99 32.68 48.98 32 50 C31.98541748 49.44127197 31.97083496 48.88254395 31.95581055 48.30688477 C31.88039202 45.72479948 31.78405119 43.14387816 31.6875 40.5625 C31.65366211 39.24475586 31.65366211 39.24475586 31.61914062 37.90039062 C31.37206528 31.81335264 30.24126153 26.66418471 28 21 C27.34 21 26.68 21 26 21 C21 15.52380952 21 15.52380952 21 13 C20.030625 12.731875 19.06125 12.46375 18.0625 12.1875 C16.5465625 11.5996875 16.5465625 11.5996875 15 11 C14.67 10.01 14.34 9.02 14 8 C13.34 8 12.68 8 12 8 C12 7.34 12 6.68 12 6 C9.03 5.505 9.03 5.505 6 5 C6 4.34 6 3.68 6 3 C3.69 2.67 1.38 2.34 -1 2 C-0.67 1.34 -0.34 0.68 0 0 Z " fill="#90DEF4" transform="translate(382,147)"/>
<path d="M0 0 C0.66 0.33 1.32 0.66 2 1 C1.3503125 1.556875 1.3503125 1.556875 0.6875 2.125 C-1.47091676 4.52324084 -2.60633711 7.09653565 -4 10 C-5.49033759 12.72148603 -6.65521405 14.70523136 -9.01953125 16.7265625 C-11.59805585 19.68652565 -11.78632926 21.88607715 -12.25 25.75 C-12.39953125 26.92046875 -12.5490625 28.0909375 -12.703125 29.296875 C-12.80109375 30.18890625 -12.8990625 31.0809375 -13 32 C-13.33 32 -13.66 32 -14 32 C-14.34788783 38.37794351 -13.24234523 43.06051971 -11 49 C-10.33333333 51 -9.66666667 53 -9 55 C-13.48438269 51.44342063 -15.01313008 47.48813272 -16 42 C-17.2328239 28.85943518 -16.01303162 18.39518254 -7.59375 7.828125 C-5.1894581 5.07026076 -2.6494379 2.52327419 0 0 Z " fill="#94E4BD" transform="translate(274,232)"/>
<path d="M0 0 C3.41703504 1.70851752 3.96292472 5.09394402 5.1640625 8.56640625 C7.65262237 18.78810779 6.96901786 29.63764318 2 39 C-2.64454976 46.32227488 -2.64454976 46.32227488 -6 48 C-5.690625 47.4225 -5.38125 46.845 -5.0625 46.25 C-4.07416636 44.15705816 -3.4831387 42.25464725 -3 40 C-2.34 40 -1.68 40 -1 40 C-1.33 37.69 -1.66 35.38 -2 33 C-1.360625 32.79375 -0.72125 32.5875 -0.0625 32.375 C2.27010907 31.15733717 2.27010907 31.15733717 2.6171875 28.4296875 C3.05404129 24.5158342 3.18389691 20.68457281 3.1875 16.75 C3.19974609 16.03070313 3.21199219 15.31140625 3.22460938 14.5703125 C3.22982924 12.71204014 3.12264513 10.85422803 3 9 C2.34 8.34 1.68 7.68 1 7 C0.59952556 4.67724823 0.2602896 2.34260643 0 0 Z " fill="#F1BB9F" transform="translate(410,89)"/>
<path d="M0 0 C0 0.33 0 0.66 0 1 C-0.69037354 1.08040527 -1.38074707 1.16081055 -2.09204102 1.24365234 C-5.24959275 1.61481756 -8.40601991 1.99483332 -11.5625 2.375 C-12.64853516 2.50132812 -13.73457031 2.62765625 -14.85351562 2.7578125 C-20.42404864 3.43508095 -25.666299 4.23995519 -31 6 C-30.67 5.34 -30.34 4.68 -30 4 C-37.26 3.67 -44.52 3.34 -52 3 C-52 2.34 -52 1.68 -52 1 C-45.88023533 0.85640093 -39.76044385 0.71402485 -33.640625 0.57275391 C-31.56119021 0.52458292 -29.48176296 0.47608491 -27.40234375 0.42724609 C-24.40366537 0.35687481 -21.40496131 0.28770171 -18.40625 0.21875 C-17.48509399 0.19687622 -16.56393799 0.17500244 -15.61486816 0.15246582 C-10.40820787 0.03405141 -5.20800974 -0.02125718 0 0 Z " fill="#E9BEA7" transform="translate(389,146)"/>
<path d="M0 0 C0.66 0 1.32 0 2 0 C2 0.66 2 1.32 2 2 C2.66 2.33 3.32 2.66 4 3 C3.67 4.32 3.34 5.64 3 7 C4.5778125 6.9690625 4.5778125 6.9690625 6.1875 6.9375 C9.32704904 6.98896802 11.96883396 7.26517187 15 8 C13 11 13 11 11.046875 11.66015625 C10.28890625 11.79292969 9.5309375 11.92570313 8.75 12.0625 C5.04074066 12.77558863 1.56321818 13.72089604 -2 15 C0.39509338 12.10067643 2.31245243 11.49831724 6 11 C6 10.34 6 9.68 6 9 C4.9275 8.9175 3.855 8.835 2.75 8.75 C-1.2738451 7.94523098 -2.48169253 7.12270126 -5 4 C-4.360625 3.71125 -3.72125 3.4225 -3.0625 3.125 C-0.84793921 2.17176549 -0.84793921 2.17176549 0 0 Z " fill="#9C72F4" transform="translate(281,216)"/>
<path d="M0 0 C0.55300781 0.2990625 1.10601562 0.598125 1.67578125 0.90625 C4.95535827 2.44958036 8.36375981 3.27808463 11.85546875 4.21875 C14 5 14 5 15 7 C17.11327425 7.90725434 17.11327425 7.90725434 19.5625 8.625 C20.38878906 8.88539063 21.21507812 9.14578125 22.06640625 9.4140625 C22.70449219 9.60742188 23.34257812 9.80078125 24 10 C20.79054398 12.8503026 18.50011452 13.43451699 14.25 13.6875 C13.26515625 13.75324219 12.2803125 13.81898438 11.265625 13.88671875 C10.51796875 13.92410156 9.7703125 13.96148437 9 14 C12.625 11 12.625 11 16 11 C16 10.34 16 9.68 16 9 C15.34773438 8.84144531 14.69546875 8.68289062 14.0234375 8.51953125 C8.15530567 6.95296508 4.31155619 5.31155619 0 1 C0 0.67 0 0.34 0 0 Z " fill="#F29E9D" transform="translate(271,138)"/>
<path d="M0 0 C1.0209375 0.433125 1.0209375 0.433125 2.0625 0.875 C6.73124145 2.66302864 11.52178259 3.89043497 16.375 5.0625 C20 6 20 6 21 7 C23.35313555 7.07271741 25.70833668 7.08370868 28.0625 7.0625 C29.35285156 7.05347656 30.64320313 7.04445312 31.97265625 7.03515625 C32.97167969 7.02355469 33.97070312 7.01195312 35 7 C28.39287551 10.99611626 19.31556675 9.56290076 12.125 7.8125 C7.29731156 6.3352132 3.84834339 4.24971219 0 1 C0 0.67 0 0.34 0 0 Z " fill="#91E0F6" transform="translate(351,218)"/>
<path d="M0 0 C3.67371617 4.43379537 6.53793081 8.55661086 8.4375 14 C9.71318208 17.5827667 11.42646123 20.16023308 14 23 C7.84161627 20.44190214 3.79366947 14.16753386 1.0625 8.25 C0.08055944 5.2464171 -0.28399937 3.12399312 0 0 Z " fill="#8BDCF6" transform="translate(337,195)"/>
<path d="M0 0 C6.80469763 -0.59171284 13.30515609 1.08866093 18.75 5.37890625 C20.125 6.75 20.125 6.75 22 9 C20.01739401 8.57835981 18.03892755 8.13721222 16.0625 7.6875 C14.96035156 7.44386719 13.85820312 7.20023437 12.72265625 6.94921875 C11.82417969 6.63597656 10.92570312 6.32273437 10 6 C9.67 5.01 9.34 4.02 9 3 C8.071875 2.87625 7.14375 2.7525 6.1875 2.625 C3 2 3 2 0 0 Z " fill="#F59F7C" transform="translate(380,70)"/>
<path d="M0 0 C4.43197587 4.43197587 3.22233862 10.95174558 3.25 16.8125 C3.270625 17.89337891 3.29125 18.97425781 3.3125 20.08789062 C3.34100692 25.89261148 3.24886515 30.10105333 0 35 C-2 32 -2 32 -2 30 C-1.01 30 -0.02 30 1 30 C1.21264778 14.96657314 1.21264778 14.96657314 0 0 Z " fill="#17B1EB" transform="translate(411,172)"/>
<path d="M0 0 C1.43088528 2.86177057 0.59991697 4.93375773 0 8 C-0.763125 8.061875 -1.52625 8.12375 -2.3125 8.1875 C-5.15493787 8.76274614 -5.15493787 8.76274614 -6.6875 11.1875 C-8.03610745 14.07737311 -9.07757088 16.94888829 -10 20 C-10.77643769 17.72614677 -11.13596514 16.42820191 -10.3984375 14.10546875 C-3.91666667 1.95833333 -3.91666667 1.95833333 0 0 Z " fill="#8FDFF6" transform="translate(348,158)"/>
<path d="M0 0 C1.29230145 3.87690436 0.54078349 5.25809723 -1 9 C-3.13212823 12.57647315 -4.52120012 14.68080008 -8 17 C-7.690625 16.4225 -7.38125 15.845 -7.0625 15.25 C-6.07416636 13.15705816 -5.4831387 11.25464725 -5 9 C-4.34 9 -3.68 9 -3 9 C-3.33 6.69 -3.66 4.38 -4 2 C-2.68 1.34 -1.36 0.68 0 0 Z " fill="#F3A17A" transform="translate(412,120)"/>
<path d="M0 0 C0.99 0.33 1.98 0.66 3 1 C3 1.66 3 2.32 3 3 C5.475 3.99 5.475 3.99 8 5 C8 5.99 8 6.98 8 8 C8.66 8 9.32 8 10 8 C10.33 8.99 10.66 9.98 11 11 C9.68 10.67 8.36 10.34 7 10 C7 9.34 7 8.68 7 8 C5.68 7.34 4.36 6.68 3 6 C3 5.34 3 4.68 3 4 C2.34 4 1.68 4 1 4 C0.67 2.68 0.34 1.36 0 0 Z " fill="#90E2B9" transform="translate(265,287)"/>
<path d="M0 0 C2.64 0.33 5.28 0.66 8 1 C4.79054398 3.8503026 2.50011452 4.43451699 -1.75 4.6875 C-2.73484375 4.75324219 -3.7196875 4.81898438 -4.734375 4.88671875 C-5.48203125 4.92410156 -6.2296875 4.96148437 -7 5 C-3.375 2 -3.375 2 0 2 C0 1.34 0 0.68 0 0 Z " fill="#C8A6EF" transform="translate(287,147)"/>
<path d="M0 0 C0.66 1.32 1.32 2.64 2 4 C2.66 4 3.32 4 4 4 C4.26554687 4.67546875 4.53109375 5.3509375 4.8046875 6.046875 C5.15789062 6.93890625 5.51109375 7.8309375 5.875 8.75 C6.22304688 9.63171875 6.57109375 10.5134375 6.9296875 11.421875 C7.8646709 13.6740248 8.87780794 15.83649459 10 18 C7.43981429 17.00377711 6.2227435 16.37706252 4.8046875 13.9765625 C4.49789063 13.20054687 4.19109375 12.42453125 3.875 11.625 C2.4962535 8.2076577 2.4962535 8.2076577 0.8828125 4.8984375 C0 3 0 3 0 0 Z " fill="#EE8887" transform="translate(261,120)"/>
<path d="M0 0 C0 0.66 0 1.32 0 2 C-3.27037599 5.27037599 -6.5130254 5.56856013 -11 6 C-7.34769214 1.25199978 -6.01084259 -0.15818007 0 0 Z " fill="#5FCEF2" transform="translate(360,152)"/>
<path d="M0 0 C0 0.66 0 1.32 0 2 C-0.7425 2.268125 -1.485 2.53625 -2.25 2.8125 C-5.02136333 3.8599379 -5.02136333 3.8599379 -7.0625 5.6875 C-9 7 -9 7 -11.25 6.6875 C-11.8275 6.460625 -12.405 6.23375 -13 6 C-8.70617045 2.10559646 -5.97466153 0 0 0 Z " fill="#EE8483" transform="translate(284,73)"/>
<path d="M0 0 C6.4 -0.36923077 6.4 -0.36923077 9.4375 1.5 C9.953125 1.995 10.46875 2.49 11 3 C10.12988281 3.18175781 10.12988281 3.18175781 9.2421875 3.3671875 C4.71971558 4.33735474 0.36249034 5.43397783 -4 7 C-1.60490662 4.10067643 0.31245243 3.49831724 4 3 C4 2.34 4 1.68 4 1 C2.68 0.67 1.36 0.34 0 0 Z " fill="#C6DEEA" transform="translate(283,224)"/>
<path d="M0 0 C-2.99119571 3.33633368 -5.87640111 5.24527707 -10 7 C-10.99 7 -11.98 7 -13 7 C-13 6.34 -13 5.68 -13 5 C-11.35 5 -9.7 5 -8 5 C-8 4.01 -8 3.02 -8 2 C-4.77208445 -0.1519437 -3.71599191 -0.20086443 0 0 Z " fill="#F3B393" transform="translate(402,139)"/>
<path d="M0 0 C0.66 0 1.32 0 2 0 C3.32 2.64 4.64 5.28 6 8 C6.66 8 7.32 8 8 8 C8 9.32 8 10.64 8 12 C8.66 12.66 9.32 13.32 10 14 C9.01 14 8.02 14 7 14 C5.4296875 11.953125 5.4296875 11.953125 3.875 9.25 C3.35679687 8.36828125 2.83859375 7.4865625 2.3046875 6.578125 C1.17060415 4.33712198 0.46961543 2.45116349 0 0 Z " fill="#8860E7" transform="translate(261,199)"/>
<path d="M0 0 C1.65 0 3.3 0 5 0 C5 0.66 5 1.32 5 2 C7.97 2.99 10.94 3.98 14 5 C14 5.33 14 5.66 14 6 C11.36 5.67 8.72 5.34 6 5 C6 4.34 6 3.68 6 3 C3.69 2.67 1.38 2.34 -1 2 C-0.67 1.34 -0.34 0.68 0 0 Z " fill="#A8E1F1" transform="translate(382,147)"/>
<path d="M0 0 C2.97 0.33 5.94 0.66 9 1 C9 1.66 9 2.32 9 3 C10.65 3 12.3 3 14 3 C13.67 3.66 13.34 4.32 13 5 C4.80743982 4.64989059 4.80743982 4.64989059 1.4375 1.9375 C0.963125 1.298125 0.48875 0.65875 0 0 Z " fill="#6DD5A1" transform="translate(276,298)"/>
<path d="M0 0 C0.66 0 1.32 0 2 0 C2 1.98 2 3.96 2 6 C0.02 6.66 -1.96 7.32 -4 8 C-1.125 1.125 -1.125 1.125 0 0 Z " fill="#BA9FF2" transform="translate(268,159)"/>
<path d="M0 0 C0.99 0.33 1.98 0.66 3 1 C3.12375 1.763125 3.2475 2.52625 3.375 3.3125 C3.88102792 6.20267136 3.88102792 6.20267136 6 9 C2.63820226 7.55922954 0.40843732 5.75249979 -2 3 C-2 2.34 -2 1.68 -2 1 C-1.34 0.67 -0.68 0.34 0 0 Z " fill="#1DB0ED" transform="translate(347,209)"/>
<path d="M0 0 C3.26460973 1.80412643 4.88929795 2.83394693 7 6 C6.625 8.1875 6.625 8.1875 6 10 C4.99421411 8.71283353 3.99553202 7.42011342 3 6.125 C2.443125 5.40570313 1.88625 4.68640625 1.3125 3.9453125 C0 2 0 2 0 0 Z " fill="#74D0F1" transform="translate(402,158)"/>
<path d="M0 0 C5.8022175 -0.36263859 9.63999211 0.74315457 15 3 C11.77564339 4.07478554 10.71203245 3.93162085 7.5 3.1875 C6.7265625 3.01605469 5.953125 2.84460938 5.15625 2.66796875 C3 2 3 2 0 0 Z " fill="#F6B695" transform="translate(380,70)"/>
<path d="M0 0 C0.99 0 1.98 0 3 0 C1.73058503 3.91402949 0.48832306 5.79072873 -3 8 C-3 6.35 -3 4.7 -3 3 C-2.01 3 -1.02 3 0 3 C0 2.01 0 1.02 0 0 Z " fill="#79D9A7" transform="translate(329,285)"/>
<path d="M0 0 C3.32604248 1.66302124 3.80042476 4.62976481 5 8 C4.6875 10.4375 4.6875 10.4375 4 12 C1.24331998 8.04476345 0.4682121 4.77576339 0 0 Z " fill="#F7C8AB" transform="translate(410,89)"/>
<path d="M0 0 C0.99 0.33 1.98 0.66 3 1 C3 1.66 3 2.32 3 3 C3.66 3 4.32 3 5 3 C5.66 4.65 6.32 6.3 7 8 C4.625 7.375 4.625 7.375 2 6 C0.6875 2.875 0.6875 2.875 0 0 Z " fill="#F9C0A5" transform="translate(402,79)"/>
<path d="M0 0 C0.33 0 0.66 0 1 0 C1.36923077 6.52307692 1.36923077 6.52307692 -0.5 8.9375 C-0.995 9.288125 -1.49 9.63875 -2 10 C-1.125 2.25 -1.125 2.25 0 0 Z " fill="#21B2ED" transform="translate(340,170)"/>
<path d="M0 0 C0.6875 1.625 0.6875 1.625 1 4 C-0.4375 7.25 -0.4375 7.25 -2 10 C-4 7 -4 7 -4 5 C-3.01 5 -2.02 5 -1 5 C-0.67 3.35 -0.34 1.7 0 0 Z " fill="#8ADFF7" transform="translate(413,197)"/>
</svg>
